<svg width="256" height="256" viewBox="0 0 256 256" fill="none" xmlns="http://www.w3.org/2000/svg">
  <rect width="256" height="256" rx="128" fill="#F8FAFC"/>
  <path d="M128 64C93.49 64 64 93.49 64 128C64 162.51 93.49 192 128 192C162.51 192 192 162.51 192 128C192 93.49 162.51 64 128 64ZM128 176C100.39 176 80 155.61 80 128C80 100.39 100.39 80 128 80C155.61 80 176 100.39 176 128C176 155.61 155.61 176 128 176Z" fill="#CBD5E1"/>
  <path d="M128 96C110.33 96 96 110.33 96 128C96 145.67 110.33 160 128 160C145.67 160 160 145.67 160 128C160 110.33 145.67 96 128 96ZM128 144C118.06 144 112 137.94 112 128C112 118.06 118.06 112 128 112C137.94 112 144 118.06 144 128C144 137.94 137.94 144 128 144Z" fill="#94A3B8"/>
  <circle cx="128" cy="128" r="8" fill="#64748B"/>
</svg>
